{
	"asset":{
		"generator":"Khronos glTF Blender I/O v4.0.44",
		"version":"2.0"
	},
	"scene":0,
	"scenes":[
		{
			"name":"Scene",
			"nodes":[
				16,
				17
			]
		}
	],
	"nodes":[
		{
			"mesh":0,
			"name":"Baseboard"
		},
		{
			"mesh":1,
			"name":"Ceiling"
		},
		{
			"name":"Door_Group.001",
			"rotation":[
				0,
				-0.7071068286895752,
				0,
				0.7071068286895752
			],
			"translation":[
				0.020000014454126358,
				0,
				-2.059999942779541
			]
		},
		{
			"mesh":2,
			"name":"Floor"
		},
		{
			"mesh":3,
			"name":"Handle_Back.001",
			"translation":[
				-0.7639999389648438,
				0,
				-0.00500000175088644
			]
		},
		{
			"mesh":4,
			"name":"Handle_Front.001",
			"rotation":[
				-1,
				0,
				0,
				4.371138828673793e-08
			],
			"translation":[
				-0.7639999389648438,
				0,
				-0.029000001028180122
			]
		},
		{
			"children":[
				4,
				5
			],
			"mesh":5,
			"name":"Door",
			"translation":[
				0.4179999828338623,
				1.0499999523162842,
				0.022099999710917473
			]
		},
		{
			"children":[
				6
			],
			"mesh":6,
			"name":"DoorFrame"
		},
		{
			"children":[
				7
			],
			"name":"Door_Group",
			"rotation":[
				0,
				-0.7071068286895752,
				0,
				0.7071068286895752
			],
			"translation":[
				0,
				0,
				-2.059999942779541
			]
		},
		{
			"mesh":7,
			"name":"Handle",
			"translation":[
				0.0350000262260437,
				0.47499996423721313,
				0.035500116646289825
			]
		},
		{
			"children":[
				9
			],
			"mesh":8,
			"name":"Window.L",
			"translation":[
				-0.5899999737739563,
				0.024999970570206642,
				0.023000303655862808
			]
		},
		{
			"mesh":9,
			"name":"Handle.001",
			"translation":[
				-0.035000029951334,
				0.47499996423721313,
				0.035500165075063705
			]
		},
		{
			"children":[
				11
			],
			"mesh":10,
			"name":"Window.R",
			"translation":[
				0.5900002121925354,
				0.024999966844916344,
				0.06250011920928955
			]
		},
		{
			"mesh":11,
			"name":"Windows_Sill",
			"translation":[
				0,
				0,
				0.09999999403953552
			]
		},
		{
			"children":[
				10,
				12,
				13
			],
			"mesh":12,
			"name":"WindowFrame"
		},
		{
			"children":[
				14
			],
			"name":"Window_Group",
			"rotation":[
				0,
				0.7071068286895752,
				0,
				0.7071068286895752
			],
			"translation":[
				4.160003662109375,
				0.6016127467155457,
				-2.059999942779541
			]
		},
		{
			"children":[
				0,
				1,
				2,
				3,
				8,
				15
			],
			"mesh":13,
			"name":"Room"
		},
		{
			"mesh":14,
			"name":"BaseHuman",
			"rotation":[
				0,
				-1,
				0,
				4.371138828673793e-08
			],
			"scale":[
				0.6898481845855713,
				0.7735421061515808,
				1.056009292602539
			],
			"translation":[
				3.119999885559082,
				0,
				-3.636
			]
		}
	],
	"materials":[
		{
			"doubleSided":true,
			"name":"Baseboardwood_material",
			"pbrMetallicRoughness":{}
		},
		{
			"doubleSided":true,
			"name":"Ceilingwood_material",
			"pbrMetallicRoughness":{}
		},
		{
			"doubleSided":true,
			"name":"Floorboard_material",
			"normalTexture":{
				"index":0
			},
			"pbrMetallicRoughness":{
				"baseColorTexture":{
					"index":1
				},
				"metallicFactor":0,
				"metallicRoughnessTexture":{
					"index":2
				}
			}
		},
		{
			"doubleSided":true,
			"name":"Handlemetal_material",
			"pbrMetallicRoughness":{}
		},
		{
			"doubleSided":true,
			"name":"Doorwood_material",
			"pbrMetallicRoughness":{}
		},
		{
			"doubleSided":true,
			"name":"Plasticmetal_Handle_material",
			"pbrMetallicRoughness":{}
		},
		{
			"doubleSided":true,
			"name":"Windowglass_material",
			"pbrMetallicRoughness":{}
		},
		{
			"doubleSided":true,
			"name":"Glass_material",
			"pbrMetallicRoughness":{}
		},
		{
			"doubleSided":true,
			"name":"Sillmetal_material",
			"pbrMetallicRoughness":{}
		},
		{
			"doubleSided":true,
			"name":"Wallwood_material",
			"pbrMetallicRoughness":{}
		},
		{
			"doubleSided":true,
			"name":"water_material",
			"pbrMetallicRoughness":{}
		}
	],
	"meshes":[
		{
			"name":"Baseboard",
			"primitives":[
				{
					"attributes":{
						"POSITION":0,
						"NORMAL":1,
						"TEXCOORD_0":2
					},
					"indices":3,
					"material":0
				}
			]
		},
		{
			"name":"Ceiling",
			"primitives":[
				{
					"attributes":{
						"POSITION":4,
						"NORMAL":5,
						"TEXCOORD_0":6
					},
					"indices":7,
					"material":1
				}
			]
		},
		{
			"name":"Floor",
			"primitives":[
				{
					"attributes":{
						"POSITION":8,
						"NORMAL":9,
						"TEXCOORD_0":10
					},
					"indices":11,
					"material":2
				}
			]
		},
		{
			"name":"Handle_Back.003",
			"primitives":[
				{
					"attributes":{
						"POSITION":12,
						"NORMAL":13
					},
					"indices":14,
					"material":3
				}
			]
		},
		{
			"name":"Handle_Front.003",
			"primitives":[
				{
					"attributes":{
						"POSITION":15,
						"NORMAL":16
					},
					"indices":14,
					"material":3
				}
			]
		},
		{
			"name":"Door.003",
			"primitives":[
				{
					"attributes":{
						"POSITION":17,
						"NORMAL":18
					},
					"indices":19,
					"material":4
				}
			]
		},
		{
			"name":"DoorFrane.003",
			"primitives":[
				{
					"attributes":{
						"POSITION":20,
						"NORMAL":21
					},
					"indices":22,
					"material":4
				}
			]
		},
		{
			"name":"Handle.008",
			"primitives":[
				{
					"attributes":{
						"POSITION":23,
						"NORMAL":24
					},
					"indices":25,
					"material":5
				}
			]
		},
		{
			"name":"Window.L.004",
			"primitives":[
				{
					"attributes":{
						"POSITION":26,
						"NORMAL":27
					},
					"indices":28,
					"material":6
				},
				{
					"attributes":{
						"POSITION":29,
						"NORMAL":30
					},
					"indices":31,
					"material":7
				}
			]
		},
		{
			"name":"Handle.009",
			"primitives":[
				{
					"attributes":{
						"POSITION":32,
						"NORMAL":33
					},
					"indices":25,
					"material":5
				}
			]
		},
		{
			"name":"Window.R.004",
			"primitives":[
				{
					"attributes":{
						"POSITION":34,
						"NORMAL":35
					},
					"indices":36,
					"material":6
				},
				{
					"attributes":{
						"POSITION":37,
						"NORMAL":38
					},
					"indices":31,
					"material":7
				}
			]
		},
		{
			"name":"Windows_Sill.004",
			"primitives":[
				{
					"attributes":{
						"POSITION":39,
						"NORMAL":40
					},
					"indices":41,
					"material":8
				}
			]
		},
		{
			"name":"WindowFrane.004",
			"primitives":[
				{
					"attributes":{
						"POSITION":42,
						"NORMAL":43
					},
					"indices":44,
					"material":6
				}
			]
		},
		{
			"name":"Room",
			"primitives":[
				{
					"attributes":{
						"POSITION":45,
						"NORMAL":46,
						"TEXCOORD_0":47
					},
					"indices":48,
					"material":9
				}
			]
		},
		{
			"name":"BaseHuman",
			"primitives":[
				{
					"attributes":{
						"POSITION":49,
						"NORMAL":50,
						"TEXCOORD_0":51
					},
					"indices":52,
					"material":10
				}
			]
		}
	],
	"textures":[
		{
			"sampler":0,
			"source":0
		},
		{
			"sampler":0,
			"source":1
		},
		{
			"sampler":0,
			"source":2
		}
	],
	"images":[
		{
			"mimeType":"image/jpeg",
			"name":"WoodFloor040_4K-JPG_NormalGL",
			"uri":"WoodFloor040_4K-JPG_NormalGL.jpg"
		},
		{
			"mimeType":"image/jpeg",
			"name":"WoodFloor040_4K-JPG_Color",
			"uri":"WoodFloor040_4K-JPG_Color.jpg"
		},
		{
			"mimeType":"image/png",
			"name":"WoodFloor040_4K-JPG_Roughness",
			"uri":"WoodFloor040_4K-JPG_Roughness.png"
		}
	],
	"accessors":[
		{
			"bufferView":0,
			"componentType":5126,
			"count":16,
			"max":[
				4.239999771118164,
				0.11999999731779099,
				0
			],
			"min":[
				-7.788753294227398e-16,
				0,
				-4.239999771118164
			],
			"type":"VEC3"
		},
		{
			"bufferView":1,
			"componentType":5126,
			"count":16,
			"type":"VEC3"
		},
		{
			"bufferView":2,
			"componentType":5126,
			"count":16,
			"type":"VEC2"
		},
		{
			"bufferView":3,
			"componentType":5123,
			"count":24,
			"type":"SCALAR"
		},
		{
			"bufferView":4,
			"componentType":5126,
			"count":8,
			"max":[
				4.239999771118164,
				2.4000000953674316,
				0
			],
			"min":[
				-3.894376647113699e-16,
				2.4000000953674316,
				-4.239999771118164
			],
			"type":"VEC3"
		},
		{
			"bufferView":5,
			"componentType":5126,
			"count":8,
			"type":"VEC3"
		},
		{
			"bufferView":6,
			"componentType":5126,
			"count":8,
			"type":"VEC2"
		},
		{
			"bufferView":7,
			"componentType":5123,
			"count":18,
			"type":"SCALAR"
		},
		{
			"bufferView":8,
			"componentType":5126,
			"count":8,
			"max":[
				4.239999771118164,
				0,
				0
			],
			"min":[
				-7.788753294227398e-16,
				0,
				-4.239999771118164
			],
			"type":"VEC3"
		},
		{
			"bufferView":9,
			"componentType":5126,
			"count":8,
			"type":"VEC3"
		},
		{
			"bufferView":10,
			"componentType":5126,
			"count":8,
			"type":"VEC2"
		},
		{
			"bufferView":11,
			"componentType":5123,
			"count":18,
			"type":"SCALAR"
		},
		{
			"bufferView":12,
			"componentType":5126,
			"count":146,
			"max":[
				0.13793155550956726,
				0.04349301755428314,
				0.07251644879579544
			],
			"min":[
				-0.04349547624588013,
				-0.04352371022105217,
				0.002511584199965
			],
			"type":"VEC3"
		},
		{
			"bufferView":13,
			"componentType":5126,
			"count":146,
			"type":"VEC3"
		},
		{
			"bufferView":14,
			"componentType":5123,
			"count":792,
			"type":"SCALAR"
		},
		{
			"bufferView":15,
			"componentType":5126,
			"count":146,
			"max":[
				0.13793155550956726,
				0.04349301755428314,
				0.07251644879579544
			],
			"min":[
				-0.04349547624588013,
				-0.04352371022105217,
				0.002511584199965
			],
			"type":"VEC3"
		},
		{
			"bufferView":16,
			"componentType":5126,
			"count":146,
			"type":"VEC3"
		},
		{
			"bufferView":17,
			"componentType":5126,
			"count":24,
			"max":[
				0,
				0.9639999270439148,
				0
			],
			"min":[
				-0.8360000252723694,
				-1.0460000038146973,
				-0.03399999812245369
			],
			"type":"VEC3"
		},
		{
			"bufferView":18,
			"componentType":5126,
			"count":24,
			"type":"VEC3"
		},
		{
			"bufferView":19,
			"componentType":5123,
			"count":36,
			"type":"SCALAR"
		},
		{
			"bufferView":20,
			"componentType":5126,
			"count":79,
			"max":[
				0.5,
				2.0999999046325684,
				0.026666665449738503
			],
			"min":[
				-0.5,
				0,
				-0.053333330899477005
			],
			"type":"VEC3"
		},
		{
			"bufferView":21,
			"componentType":5126,
			"count":79,
			"type":"VEC3"
		},
		{
			"bufferView":22,
			"componentType":5123,
			"count":141,
			"type":"SCALAR"
		},
		{
			"bufferView":23,
			"componentType":5126,
			"count":648,
			"max":[
				0.007971039041876793,
				0.05025443434715271,
				0.0038057267665863037
			],
			"min":[
				-0.007970962673425674,
				-0.07533407211303711,
				-6.780028343200684e-07
			],
			"type":"VEC3"
		},
		{
			"bufferView":24,
			"componentType":5126,
			"count":648,
			"type":"VEC3"
		},
		{
			"bufferView":25,
			"componentType":5123,
			"count":1368,
			"type":"SCALAR"
		},
		{
			"bufferView":26,
			"componentType":5126,
			"count":296,
			"max":[
				0.6140000224113464,
				0.949999988079071,
				0.03449999913573265
			],
			"min":[
				-0.004000000189989805,
				0,
				0
			],
			"type":"VEC3"
		},
		{
			"bufferView":27,
			"componentType":5126,
			"count":296,
			"type":"VEC3"
		},
		{
			"bufferView":28,
			"componentType":5123,
			"count":528,
			"type":"SCALAR"
		},
		{
			"bufferView":29,
			"componentType":5126,
			"count":4,
			"max":[
				0.5600000023841858,
				0.8999999761581421,
				0.017249999567866325
			],
			"min":[
				0.05000000074505806,
				0.05000000074505806,
				0.017249999567866325
			],
			"type":"VEC3"
		},
		{
			"bufferView":30,
			"componentType":5126,
			"count":4,
			"type":"VEC3"
		},
		{
			"bufferView":31,
			"componentType":5123,
			"count":6,
			"type":"SCALAR"
		},
		{
			"bufferView":32,
			"componentType":5126,
			"count":648,
			"max":[
				0.007971039041876793,
				0.05025443434715271,
				0.0038057267665863037
			],
			"min":[
				-0.007970962673425674,
				-0.07533407211303711,
				-6.780028343200684e-07
			],
			"type":"VEC3"
		},
		{
			"bufferView":33,
			"componentType":5126,
			"count":648,
			"type":"VEC3"
		},
		{
			"bufferView":34,
			"componentType":5126,
			"count":296,
			"max":[
				0.004000000189989805,
				0.949999988079071,
				0.03449999913573265
			],
			"min":[
				-0.6140000224113464,
				0,
				0
			],
			"type":"VEC3"
		},
		{
			"bufferView":35,
			"componentType":5126,
			"count":296,
			"type":"VEC3"
		},
		{
			"bufferView":36,
			"componentType":5123,
			"count":528,
			"type":"SCALAR"
		},
		{
			"bufferView":37,
			"componentType":5126,
			"count":4,
			"max":[
				-0.05000000074505806,
				0.8999999761581421,
				0.017249999567866325
			],
			"min":[
				-0.5600000023841858,
				0.05000000074505806,
				0.017249999567866325
			],
			"type":"VEC3"
		},
		{
			"bufferView":38,
			"componentType":5126,
			"count":4,
			"type":"VEC3"
		},
		{
			"bufferView":39,
			"componentType":5126,
			"count":24,
			"max":[
				0.6000000238418579,
				0,
				0
			],
			"min":[
				-0.6000000238418579,
				-0.009999999776482582,
				-0.2199999988079071
			],
			"type":"VEC3"
		},
		{
			"bufferView":40,
			"componentType":5126,
			"count":24,
			"type":"VEC3"
		},
		{
			"bufferView":41,
			"componentType":5123,
			"count":36,
			"type":"SCALAR"
		},
		{
			"bufferView":42,
			"componentType":5126,
			"count":352,
			"max":[
				0.6100000143051147,
				1.0099999904632568,
				0.10199999809265137
			],
			"min":[
				-0.6100000143051147,
				-0.009999999776482582,
				0
			],
			"type":"VEC3"
		},
		{
			"bufferView":43,
			"componentType":5126,
			"count":352,
			"type":"VEC3"
		},
		{
			"bufferView":44,
			"componentType":5123,
			"count":624,
			"type":"SCALAR"
		},
		{
			"bufferView":45,
			"componentType":5126,
			"count":140,
			"max":[
				4.239999771118164,
				2.4000000953674316,
				0
			],
			"min":[
				-7.788753294227398e-16,
				-7.594034183939027e-18,
				-4.239999771118164
			],
			"type":"VEC3"
		},
		{
			"bufferView":46,
			"componentType":5126,
			"count":140,
			"type":"VEC3"
		},
		{
			"bufferView":47,
			"componentType":5126,
			"count":140,
			"type":"VEC2"
		},
		{
			"bufferView":48,
			"componentType":5123,
			"count":324,
			"type":"SCALAR"
		},
		{
			"bufferView":49,
			"componentType":5126,
			"count":2160,
			"max":[
				0.9422362446784973,
				1.9908418655395508,
				0.2104925513267517
			],
			"min":[
				-0.9422362446784973,
				-1.862645149230957e-09,
				-0.16829198598861694
			],
			"type":"VEC3"
		},
		{
			"bufferView":50,
			"componentType":5126,
			"count":2160,
			"type":"VEC3"
		},
		{
			"bufferView":51,
			"componentType":5126,
			"count":2160,
			"type":"VEC2"
		},
		{
			"bufferView":52,
			"componentType":5123,
			"count":3276,
			"type":"SCALAR"
		}
	],
	"bufferViews":[
		{
			"buffer":0,
			"byteLength":192,
			"byteOffset":0,
			"target":34962
		},
		{
			"buffer":0,
			"byteLength":192,
			"byteOffset":192,
			"target":34962
		},
		{
			"buffer":0,
			"byteLength":128,
			"byteOffset":384,
			"target":34962
		},
		{
			"buffer":0,
			"byteLength":48,
			"byteOffset":512,
			"target":34963
		},
		{
			"buffer":0,
			"byteLength":96,
			"byteOffset":560,
			"target":34962
		},
		{
			"buffer":0,
			"byteLength":96,
			"byteOffset":656,
			"target":34962
		},
		{
			"buffer":0,
			"byteLength":64,
			"byteOffset":752,
			"target":34962
		},
		{
			"buffer":0,
			"byteLength":36,
			"byteOffset":816,
			"target":34963
		},
		{
			"buffer":0,
			"byteLength":96,
			"byteOffset":852,
			"target":34962
		},
		{
			"buffer":0,
			"byteLength":96,
			"byteOffset":948,
			"target":34962
		},
		{
			"buffer":0,
			"byteLength":64,
			"byteOffset":1044,
			"target":34962
		},
		{
			"buffer":0,
			"byteLength":36,
			"byteOffset":1108,
			"target":34963
		},
		{
			"buffer":0,
			"byteLength":1752,
			"byteOffset":1144,
			"target":34962
		},
		{
			"buffer":0,
			"byteLength":1752,
			"byteOffset":2896,
			"target":34962
		},
		{
			"buffer":0,
			"byteLength":1584,
			"byteOffset":4648,
			"target":34963
		},
		{
			"buffer":0,
			"byteLength":1752,
			"byteOffset":6232,
			"target":34962
		},
		{
			"buffer":0,
			"byteLength":1752,
			"byteOffset":7984,
			"target":34962
		},
		{
			"buffer":0,
			"byteLength":288,
			"byteOffset":9736,
			"target":34962
		},
		{
			"buffer":0,
			"byteLength":288,
			"byteOffset":10024,
			"target":34962
		},
		{
			"buffer":0,
			"byteLength":72,
			"byteOffset":10312,
			"target":34963
		},
		{
			"buffer":0,
			"byteLength":948,
			"byteOffset":10384,
			"target":34962
		},
		{
			"buffer":0,
			"byteLength":948,
			"byteOffset":11332,
			"target":34962
		},
		{
			"buffer":0,
			"byteLength":282,
			"byteOffset":12280,
			"target":34963
		},
		{
			"buffer":0,
			"byteLength":7776,
			"byteOffset":12564,
			"target":34962
		},
		{
			"buffer":0,
			"byteLength":7776,
			"byteOffset":20340,
			"target":34962
		},
		{
			"buffer":0,
			"byteLength":2736,
			"byteOffset":28116,
			"target":34963
		},
		{
			"buffer":0,
			"byteLength":3552,
			"byteOffset":30852,
			"target":34962
		},
		{
			"buffer":0,
			"byteLength":3552,
			"byteOffset":34404,
			"target":34962
		},
		{
			"buffer":0,
			"byteLength":1056,
			"byteOffset":37956,
			"target":34963
		},
		{
			"buffer":0,
			"byteLength":48,
			"byteOffset":39012,
			"target":34962
		},
		{
			"buffer":0,
			"byteLength":48,
			"byteOffset":39060,
			"target":34962
		},
		{
			"buffer":0,
			"byteLength":12,
			"byteOffset":39108,
			"target":34963
		},
		{
			"buffer":0,
			"byteLength":7776,
			"byteOffset":39120,
			"target":34962
		},
		{
			"buffer":0,
			"byteLength":7776,
			"byteOffset":46896,
			"target":34962
		},
		{
			"buffer":0,
			"byteLength":3552,
			"byteOffset":54672,
			"target":34962
		},
		{
			"buffer":0,
			"byteLength":3552,
			"byteOffset":58224,
			"target":34962
		},
		{
			"buffer":0,
			"byteLength":1056,
			"byteOffset":61776,
			"target":34963
		},
		{
			"buffer":0,
			"byteLength":48,
			"byteOffset":62832,
			"target":34962
		},
		{
			"buffer":0,
			"byteLength":48,
			"byteOffset":62880,
			"target":34962
		},
		{
			"buffer":0,
			"byteLength":288,
			"byteOffset":62928,
			"target":34962
		},
		{
			"buffer":0,
			"byteLength":288,
			"byteOffset":63216,
			"target":34962
		},
		{
			"buffer":0,
			"byteLength":72,
			"byteOffset":63504,
			"target":34963
		},
		{
			"buffer":0,
			"byteLength":4224,
			"byteOffset":63576,
			"target":34962
		},
		{
			"buffer":0,
			"byteLength":4224,
			"byteOffset":67800,
			"target":34962
		},
		{
			"buffer":0,
			"byteLength":1248,
			"byteOffset":72024,
			"target":34963
		},
		{
			"buffer":0,
			"byteLength":1680,
			"byteOffset":73272,
			"target":34962
		},
		{
			"buffer":0,
			"byteLength":1680,
			"byteOffset":74952,
			"target":34962
		},
		{
			"buffer":0,
			"byteLength":1120,
			"byteOffset":76632,
			"target":34962
		},
		{
			"buffer":0,
			"byteLength":648,
			"byteOffset":77752,
			"target":34963
		},
		{
			"buffer":0,
			"byteLength":25920,
			"byteOffset":78400,
			"target":34962
		},
		{
			"buffer":0,
			"byteLength":25920,
			"byteOffset":104320,
			"target":34962
		},
		{
			"buffer":0,
			"byteLength":17280,
			"byteOffset":130240,
			"target":34962
		},
		{
			"buffer":0,
			"byteLength":6552,
			"byteOffset":147520,
			"target":34963
		}
	],
	"samplers":[
		{
			"magFilter":9729,
			"minFilter":9987
		}
	],
	"buffers":[
		{
			"byteLength":154072,
			"uri":"0111_room_v04.bin"
		}
	]
}
